<svg xmlns="http://www.w3.org/2000/svg" xmlns:xlink="http://www.w3.org/1999/xlink" viewBox="0 0 64 64"><defs><style>.cls-1{fill:#9db8d3;}.cls-2{fill:url(#linear-gradient);}.cls-3{fill:#8ad3fe;}.cls-4{fill:#ffb369;}.cls-5{fill:url(#linear-gradient-2);}.cls-6{fill:#eb7f58;}.cls-7{fill:url(#linear-gradient-3);}.cls-8{fill:#d7e9f7;}</style><linearGradient id="linear-gradient" x1="15" y1="51" x2="15" y2="19" gradientUnits="userSpaceOnUse"><stop offset="0" stop-color="#54a5ff"/><stop offset="1" stop-color="#8ad3fe"/></linearGradient><linearGradient id="linear-gradient-2" x1="43" y1="51" x2="43" y2="16" gradientUnits="userSpaceOnUse"><stop offset="0" stop-color="#fe9661"/><stop offset="1" stop-color="#ffb369"/></linearGradient><linearGradient id="linear-gradient-3" x1="27.5" x2="27.5" y2="9" xlink:href="#linear-gradient"/></defs><title>Library</title><g id="Library"><rect class="cls-1" x="7" y="51" width="50" height="6" rx="2" ry="2"/><path class="cls-2" d="M12,19h6a2,2,0,0,1,2,2V51a0,0,0,0,1,0,0H10a0,0,0,0,1,0,0V21A2,2,0,0,1,12,19Z"/><path class="cls-3" d="M32,22h4a2,2,0,0,1,2,2V51a0,0,0,0,1,0,0H30a0,0,0,0,1,0,0V24A2,2,0,0,1,32,22Z"/><path class="cls-4" d="M50,22h2a2,2,0,0,1,2,2V51a0,0,0,0,1,0,0H48a0,0,0,0,1,0,0V24A2,2,0,0,1,50,22Z"/><path class="cls-5" d="M40,16h6a2,2,0,0,1,2,2V51a0,0,0,0,1,0,0H38a0,0,0,0,1,0,0V18A2,2,0,0,1,40,16Z"/><path class="cls-6" d="M22,7h1a2,2,0,0,1,2,2V51a0,0,0,0,1,0,0H20a0,0,0,0,1,0,0V9A2,2,0,0,1,22,7Z"/><path class="cls-7" d="M27,9h1a2,2,0,0,1,2,2V51a0,0,0,0,1,0,0H25a0,0,0,0,1,0,0V11A2,2,0,0,1,27,9Z"/><circle class="cls-8" cx="15" cy="37" r="3"/><path class="cls-3" d="M17,44H13a1,1,0,0,1,0-2h4A1,1,0,0,1,17,44Z"/><path class="cls-3" d="M17,48H13a1,1,0,0,1,0-2h4A1,1,0,0,1,17,48Z"/><rect class="cls-4" x="20" y="38" width="5" height="6"/><path class="cls-6" d="M41,43V25a2,2,0,0,1,4,0V43A2,2,0,0,1,41,43Z"/><path class="cls-8" d="M33,46V26a1,1,0,0,1,2,0V46A1,1,0,0,1,33,46Z"/></g></svg>